<svg width="43" height="282" viewBox="0 0 43 282" fill="none" xmlns="http://www.w3.org/2000/svg">
<path d="M27.149 258.023L32.8824 261.059C32.8824 266.638 28.3436 271.176 22.7647 271.176C17.1858 271.176 12.6471 266.638 12.6471 261.059V226.238C14.1982 224.848 15.1765 222.83 15.1765 220.588C15.1765 216.404 11.7723 213 7.58823 213C3.40403 213 0 216.404 0 220.588C0 222.83 0.978258 224.848 2.52941 226.238V261.059C2.52941 272.234 11.589 281.294 22.7647 281.294C33.9404 281.294 43 272.234 43 261.059V243.184L27.149 258.023ZM7.58823 223.118C6.19354 223.118 5.05882 221.983 5.05882 220.588C5.05882 219.194 6.19354 218.059 7.58823 218.059C8.98293 218.059 10.1176 219.194 10.1176 220.588C10.1176 221.983 8.98293 223.118 7.58823 223.118Z" fill="#4C3C33"/>
<path d="M8.00001 206L8 3" stroke="url(#paint0_linear_326_682)" stroke-width="5" stroke-linecap="round"/>
<defs>
<linearGradient id="paint0_linear_326_682" x1="8.50001" y1="206" x2="8.5" y2="3" gradientUnits="userSpaceOnUse">
<stop stop-color="#44403C"/>
<stop offset="1" stop-color="#AAA096" stop-opacity="0"/>
</linearGradient>
</defs>
</svg>
